<svg xmlns="http://www.w3.org/2000/svg" viewBox="0 0 249.08 254.37"><defs><style>.cls-1{fill:#08603a;}.cls-2{fill:#d03016;}.cls-3{fill:#846e32;}.cls-4{fill:none;stroke:#846e32;stroke-miterlimit:10;stroke-width:2px;}</style></defs><g id="Layer_2" data-name="Layer 2"><g id="Layer_1-2" data-name="Layer 1"><path class="cls-1" d="M96.68,231a1,1,0,0,1-1.28.66,100.25,100.25,0,0,1-23.17-11c-47.77-30.88-63.11-97.07-34.47-148a1,1,0,0,1,1.38-.37h0a1,1,0,0,1,.37,1.35c-28.14,50-13.1,115,33.8,145.34A98,98,0,0,0,96,229.72a1,1,0,0,1,.65,1.24Z"></path><path class="cls-1" d="M153.55,231.32h0a1,1,0,0,1,.66-1.24c23.85-7.44,44.09-23.92,57.07-46.51a111.61,111.61,0,0,0,.85-109.35,1,1,0,0,1,.38-1.35h0a1,1,0,0,1,1.38.39A113.64,113.64,0,0,1,213,184.57c-13.23,23-33.87,39.83-58.2,47.42A1,1,0,0,1,153.55,231.32Z"></path><path class="cls-2" d="M88.57,253.67a1,1,0,0,1-1.27.65A126.18,126.18,0,0,1,25,208.89,131.87,131.87,0,0,1,11.2,78.48a1,1,0,0,1,1.34-.5h0a1,1,0,0,1,.5,1.31,128.66,128.66,0,0,0-11,52.5c0,55.61,34.49,104,85.92,120.63a1,1,0,0,1,.65,1.25Z"></path><path class="cls-2" d="M247.85,136.48h0a1,1,0,0,1-.94-1.06c.12-2.23.17-4.42.17-7,0-60.88-38.87-112.74-94.66-126.48a1,1,0,0,1-.74-1.19h0A1,1,0,0,1,152.9,0c26.77,6.61,51,22.72,68.45,45.46a137,137,0,0,1,27.73,83c0,2.59-.05,4.82-.17,7.09A1,1,0,0,1,247.85,136.48Z"></path><polygon class="cls-3" points="74.22 205.56 74.78 202.76 71.43 202.21 71.71 199.97 68.36 199.41 67.8 202.21 71.14 202.77 70.86 205 74.22 205.56"></polygon><path class="cls-3" d="M60,192.71a4.81,4.81,0,0,0,2.79-.28c.84-.55.56-1.39,0-2-.84-.84-2.23-.56-3.07-1.12-.28-.28,1.12-.55,0-2-.84-1.12-2.79-.56-3.63,0-.28,0-.56.28-.28.28.84.84,2.51,0,3.07.84.28.28-1.12,1.11-.84,1.39.84.84,2.8.28,3.35,1.4,0,.56-1.4,1.11-1.4,1.39Z"></path><rect class="cls-3" x="38.01" y="154.69" width="3.18" height="3.18" transform="translate(-108.05 91.55) rotate(-52.11)"></rect><polygon class="cls-3" points="44.63 159.91 46.3 157.95 43.51 156 44.9 154.33 42.11 152.1 40.44 154.05 42.95 156.29 41.55 157.96 44.63 159.91"></polygon><path class="cls-3" d="M86.22,202.49c.56,0,.56-.56,0-.84a34.1,34.1,0,0,0-4.47-1.12c-7-14.51-13.68-16.47-17.86-20.1-.84-.56.28-2.51-.28-3.63s-4.19-2-4.75-3.07c-.28-.56.28-2.23-.28-3.07-.84-1.39-1.95-1.39-2.23-1.95,0-.28,0-.28.28-.84a2.28,2.28,0,0,0,.28-2,4.12,4.12,0,0,0-1.12-2.51c-.28-.56-2.23-2.52-2.79-3.35,0-.28.84-1.12.56-2.23a.27.27,0,0,0-.27-.28h0a31.47,31.47,0,0,1-3.07-3.35,14.07,14.07,0,0,0,.83-1.95,1,1,0,0,0-.28-.84c-.27-.56-1.39-.84-1.67-1.12a12.15,12.15,0,0,0,.56-2.79,5.1,5.1,0,0,0-4.47-3.91c-.28,0-7-.55-8.09-.55s0,1.39,1.11,2.23c.56.56,2,.56,7.82,1.12.56,0,.84.55,1.12,1.11a1.93,1.93,0,0,1-.56,2.24V150c.28.55,1.67,1.39,2,1.95a1.24,1.24,0,0,1-.28,1.4c-.28.27-.84.27-.56.83.84,1.12,2.24,1.68,2.79,2.79a1,1,0,0,1-.28.84c-.83.84-.83,1.12,0,1.95a21.09,21.09,0,0,1,2.52,2.52,4,4,0,0,1,.83,3.9,3.51,3.51,0,0,0-1.67-.28,2.1,2.1,0,0,0-1.4.28,4,4,0,0,0-1.67,3.35,4.51,4.51,0,0,0,.83,2.23c1.12,2,2,2.51,3.07,2.79.84.28,1.4,0,1.4-.83,0-1.4,0-2,.56-2.51.28-.28.83.28,1.11.56.56,1.11-.28,2.23.28,3.34.84,1.12,1.4.84,3.07,1.4a5.83,5.83,0,0,1,2.24,1.67c.56,1.12-1.4,2-.84,2.79.28.56.84.84.84,1.12C67,185.74,75.05,193,77.56,201.37a.89.89,0,0,0,.84.84c3.34.28,5.3.28,7.81.28Z"></path><polygon class="cls-3" points="79.24 185.18 79.8 182.67 76.45 181.83 77.01 179.59 73.67 178.76 72.82 181.54 75.89 182.38 75.33 184.33 79.24 185.18"></polygon><rect class="cls-3" x="64.19" y="168.04" width="3.02" height="3.02" transform="translate(-111.81 130.13) rotate(-56.3)"></rect><path class="cls-3" d="M50.21,137a6.67,6.67,0,0,0-3.63-2.51c-2.23-.28-3.63,0-5.58-.28-.84,0-1.68-.56-2.23-.56-.56-.28-.84.56,0,.84a12.7,12.7,0,0,0,3.9,2c2.51.83,5,.55,7.54.55Z"></path><polygon class="cls-3" points="39.88 120.27 42.67 119.71 41.83 116.64 44.07 116.36 43.51 113.02 40.72 113.3 41.28 116.64 39.04 116.92 39.88 120.27"></polygon><polygon class="cls-3" points="61.1 109.95 63.89 109.39 63.05 106.04 65.28 105.76 64.45 102.42 61.66 102.69 62.22 106.04 59.98 106.32 61.1 109.95"></polygon><path class="cls-3" d="M63.33,91.24c-.28-3.34-3.07-8.09-5-5.86-1.39,1.68-1.67,3.63-.28,7a15.38,15.38,0,0,1-1.39-2l-4.19-4.19a.53.53,0,0,0-.83.28c.83,2,.83,2.23,2.23,3.63a35.82,35.82,0,0,0,4.75,3.63c1.11,1.95-1.68,3.34-3.08,2.23.28,7.54-.55,16.47-8.66,24.85l-.27.27v.28c1.4,2.79,3.07,4.47,4.75,7h0c.28.28.83-.28.55-.56a8.7,8.7,0,0,1-2-3.91c7-7.53,7.54-13.67,7.82-25.12C61.09,100.45,63.89,95.43,63.33,91.24Zm-1.68-1.12a13.56,13.56,0,0,1-1.11,4.19h0A13,13,0,0,1,58.86,89c0-.84.84-2,1.68-1.68A2.94,2.94,0,0,1,61.65,90.12Z"></path><path class="cls-3" d="M178.2,204.44c.56-1.4,0-3.07,0-3.91-.28-1.95-5.86-8.93-7.26-10.89a5.52,5.52,0,0,0,.28,3.63c.28,1.68,5.31,8.66,7,11.17Z"></path><polygon class="cls-3" points="177.08 188.25 177.64 185.18 174.57 184.62 174.02 187.69 177.08 188.25"></polygon><path class="cls-3" d="M182.67,205c.28.28.55-.27.55-.83s.28-.84.28-1.12c.28-.83.84-1.95,1.12-2.79a30,30,0,0,1,2.51-3.63,22.37,22.37,0,0,0,2.24-3.34c.55-1.12.28-5.87-1.12-6.7-.56-.28-1.95,2.79-3.07,3.35v-2l-2.23-.83c-.28.83-.28,4.18-.56,4.46,0,.56-.28,2.8-.28,3.63,0,.56,2.23-1.39,2.79-1.95l.83-.84c.28.28,0,.84-.28,1.12-1.67,2.23-3.9,6.69-3.62,10.33.56.27.56,1.11.84,1.11Z"></path><path class="cls-3" d="M68.91,82.17a4.39,4.39,0,0,0-1.12-3.63l-3.9-3.91A5.7,5.7,0,0,1,62.77,73c-.28-.56-.83-.28-.83.56a6.55,6.55,0,0,0,1.39,3.63C65,78.82,67,80.22,68.91,82.17Z"></path><path class="cls-3" d="M185.18,188c.28-2,.28-4.19.56-5.86a27.81,27.81,0,0,1,.56-4.47c2.23,1.68,3.62,2.23,4.46,1.12a11.06,11.06,0,0,0,1.12-5.59v-.55c1.39.83,3.34,1.11,4.46-.28a8.28,8.28,0,0,0,.28-4.47,5.39,5.39,0,0,0-2.23-3.35,2.61,2.61,0,0,0-3.07,1.12,13.56,13.56,0,0,1,.28-6.69c.28-.84,1.39-2.79,1.11-3.35-.55-.84-3.9,3.63-4.18,4.47-.56,1.11,0,1.39,1.39,8.37.28.84,1.12,5,0,5.86-.28.28-1.11-.27-2.23-.83-.28-.84-.56-2.24-.84-3.35,0-.28-.56-1.11-.83-.83-.28,0-.28.27-.84,1.11a25.35,25.35,0,0,0-.84,4.47c-.28,3.07.28,5.3-.56,5.58a3,3,0,0,1-1.67.56c-2.24.56-3.07,3.91-.84,4.19.56.27,1.4-.56,2-.56.28,0-.28,1.94-.28,2.5Z"></path><polygon class="cls-3" points="89.29 62.06 90.41 58.72 92.36 59.55 93.48 56.21 90.96 55.37 89.84 58.44 87.89 57.6 86.77 60.95 89.29 62.06"></polygon><path class="cls-3" d="M200.25,165.78c.84,1.11,1.68.28.84-.56a33.65,33.65,0,0,1-2.79-4.74c-.84-1.67-1.4-6.14-1.68-9.77,0-.56-.28-.84-.83.56a13,13,0,0,0-1.4,7C194.67,159.91,195.23,159.63,200.25,165.78Z"></path><path class="cls-3" d="M122.51,49c-1.12,0-2-.56-2.51-.28a7.73,7.73,0,0,0-3.63,2c-2,1.67-3.91,3.34-4.47,5.58-1.12.28-2.79,2-3.35,2.51-.28,0-.83.56-1.11.56V56.77a2.12,2.12,0,0,0-.56-1.12,2.66,2.66,0,0,0-2.79-1.12c-.28,0-.56.28-1.12.56a7.19,7.19,0,0,0-2.79,4.47,3.2,3.2,0,0,0,1.12,3.35,11.9,11.9,0,0,1-3.07,2c-5.87,3.35-13.4,6.69-22,7.54-.56,0-.84.56-.84,1.11-.83,7.26.28,8.66-5.58,12.84v.84a24.48,24.48,0,0,0,6.14-2.79c.84-.56.84-4.47.84-6.69a73.39,73.39,0,0,0,17-6.42,41.88,41.88,0,0,0,7.82-4.75c2.79-2.23,7.54-5.58,8.38-6.69a2.79,2.79,0,0,1,2-1.12c.84-.28,1.95,2.24,3.91,1.4A3.86,3.86,0,0,0,118,57.62a2.42,2.42,0,0,0-.84-1.68c-.28-.28-.83-.28-1.11-.84-.28-.28,0-.83.28-1.39a3.77,3.77,0,0,1,2.79-2c1.11,0,1.67,1.12,2.51.56a2.75,2.75,0,0,0,1.4-2A1.83,1.83,0,0,0,122.51,49ZM102.69,60.68h0a1.25,1.25,0,0,1,.84-1.68c.83-.28,2,1.12,2,1.4C104.93,61,103,61.23,102.69,60.68Z"></path><polygon class="cls-3" points="191.88 148.19 194.39 146.51 192.44 143.99 194.39 142.6 192.72 139.81 190.21 141.49 191.88 144 189.93 145.4 191.88 148.19"></polygon><polygon class="cls-3" points="114.69 69.89 116.09 66.82 118.04 67.93 119.44 65.14 117.2 63.75 115.81 66.82 113.85 65.7 112.46 68.77 114.69 69.89"></polygon><path class="cls-3" d="M204.16,153.21c.28-.56-1.95-3.34-1.95-4.18a1.73,1.73,0,0,1,.56-2,7.66,7.66,0,0,0,1.67-2.23c.28-1.12-.84-3.07-1.95-4.19l-2.24-2.23h-.56c-.83.83,2,3.63,1.12,4.46a6.08,6.08,0,0,0-1.95,2c-1.12,1.39,2.23,5.3,3.62,6.69C203,152.94,203.88,153.77,204.16,153.21Z"></path><polygon class="cls-3" points="208.91 152.93 211.42 151.26 209.47 148.75 211.42 147.35 209.47 144.84 206.95 146.51 208.63 149.02 206.67 150.41 208.91 152.93"></polygon><rect class="cls-3" x="193.09" y="120.65" width="3.16" height="3.16" transform="translate(-29.41 173.45) rotate(-45)"></rect><path class="cls-3" d="M211.7,134.79c-.56-1.4-2.24-2.24-2.79-2.79-1.68-1.12-10-3.07-12.56-3.91a7.09,7.09,0,0,0,2.51,2.51C200.53,131.72,211.14,134.79,211.7,134.79Z"></path><path class="cls-3" d="M132.7,64.86c3.07.56,5.86-3.34,6.69-5.3.56-1.4,2.23-5.86,3.07-7.82,0-.28.28-.84,0-1.11-.56,0-2.51,1.39-2.51,1.95l-2.51,7.54c-.28.83-2,.83-2.51.83a1.58,1.58,0,0,1-1.68-1.67c0-1.4,1.68-3.63,1.12-4.19h-.28c-.28,0-.56.56-1.4,1.4L130.19,59c-1.4,1.4-4.19,1.4-5.87,1.4H124c-.28.28.28.56.56.83.28.56,2,1.12,2.79,1.12s2-1.12,3.63-2.79c-.83,2.23-.83,4.74,1.68,5.3Z"></path><polygon class="cls-3" points="155.59 76.59 158.66 76.03 158.1 72.96 155.03 73.52 154.47 71.28 151.4 71.84 151.96 74.91 155.03 74.35 155.59 76.59"></polygon><path class="cls-3" d="M214.21,130c.56,0,0-.55-.28-.83l-.84-.84-1.67-2.51c-.56-1.12-1.12-2.79-1.68-3.91a11.9,11.9,0,0,0-1.39-3.63c-.56-1.12-4.75-3.63-6.14-2.79-.56.28,1.11,3.07.83,4.47a10.18,10.18,0,0,1-1.39-1.68l-2,1.68,1.12,1.11c.56.56,4.47,3.91,5,3.91s0-2.51,0-3.35l-.28-1.11c.28,0,.55.56.83.83.84,2.52,3.35,7,6.42,8.94a1.42,1.42,0,0,1,1.4-.28Z"></path><path class="cls-3" d="M199.69,120l2-1.67c-.56-.84-1.12-1.68-1.4-1.68-5-5.86-7.81-12.28-8.09-22.61,0-.28,0-.84-.56-.84-7.54-.83-8.1-2-12-7.25-.28-.28-.56,0-.56.56l1.4,5.86a2.39,2.39,0,0,0,2.23,2l5.31.56c.83,7.54,2.51,13.12,5.86,18.15,2.52,2.79,4.75,5.58,5.86,7Z"></path><path class="cls-3" d="M143.31,62.91a5.46,5.46,0,0,0,3.08-2.51,40.14,40.14,0,0,0,1.67-5.31,5.14,5.14,0,0,0,.56-2c.28-.56-.28-.84-.84-.56a3.89,3.89,0,0,0-1.95,1.67c-1.12,4.47-1.68,6.14-2.51,8.66Z"></path><path class="cls-3" d="M161.18,70.44a12.66,12.66,0,0,0,6.42-1.39c1.12-.56,2.24-.84,1.68-1.4-.28-.56-3.63.28-4.47.28a2.3,2.3,0,0,1-1.67-1.11,3.27,3.27,0,0,0-1.68-1.68c-1.12-.83-2.79,0-3.91.56a25.86,25.86,0,0,0-2.79,1.4c-.28,0-.28.28-.28.56.56.83,3.63-1.12,4.47,0a13.3,13.3,0,0,0,1.67,2.51,1,1,0,0,0,.56.28Z"></path><path class="cls-3" d="M179.6,79.94a9.08,9.08,0,0,0,4.19-.84c.28-.28.56-.28.84-.56s.56-.56.28-.56c0-.28-.56-.28-.84-.28-1.39.56-2.23.84-3.63-.28-.84-.56-1.11-1.11-2.23-.83a22,22,0,0,1-4.19.56A5.12,5.12,0,0,1,169.55,76c-2.79-1.68-3.34-2-3.63-1.68a2.89,2.89,0,0,0,.28,1.12c2.24,2.79,2.24,3.35,3.63,3.63,2,.28,3.35-.84,5-.84s3.06,1.4,4.74,1.68Z"></path><polygon class="cls-3" points="161.74 60.4 164.81 59.28 163.69 56.49 160.62 57.6 159.78 55.37 156.7 56.49 157.81 59.28 160.89 58.16 161.74 60.4"></polygon><path class="cls-3" d="M187.41,85c2-.84,3.34-1.67,5-2.51.56-.28,1.4-.56,2-.84s.55-.56-.28-.83a3.86,3.86,0,0,0-2.52,0,49.48,49.48,0,0,0-7.81,3.9c.56.84,2.79.84,3.63.28Z"></path><polygon class="cls-3" points="196.62 91.24 198.01 88.45 195.23 87.06 193.83 89.57 196.62 91.24"></polygon><path class="cls-3" d="M187.41,76a.81.81,0,0,0-.28-1.4l-.56-.56c-.55-.56,0-.84.28-.56s1.4,1.4,2.24.56a4.12,4.12,0,0,0-1.68-1.4,2.43,2.43,0,0,0-1.95,0c-.84.56-.56,1.12,0,1.68.28.28,1.11.84.84.84-.56.28-2-1.12-2.24-1.12h-.84l-.27.28c2.79,1.68,3.62,2.51,4.46,1.68Z"></path><path class="cls-3" d="M126.42,214.21c10.32,0,16.74-2.79,23.17-8.93l5.3-5.59-6.42,3.63a25.9,25.9,0,0,1-12.84,3.35A27.29,27.29,0,0,1,108.27,179H106a29.66,29.66,0,0,0,29.6,29.87,26,26,0,0,0,6.69-.83c-4.75,3.07-9.49,3.9-15.91,3.9A32.88,32.88,0,0,1,93.2,179H91a35.28,35.28,0,0,0,35.46,35.19Z"></path><path class="cls-3" d="M81.75,174.15c.84,1.4,3.07.84,4.47-.28,1.67-1.39,1.11-5.58,3.07-5.58.84,0-.28,2.51-.28,3.35h1.4c.27-1.68.83-2.52.27-5.31-.27-2,6.7-8.1,7.82-12.84.56-2.51.56-4.47-.28-4.47-1.11,0-2.51,2-3.34,3.07-2,2.52-2,8.39-3.08,10.89-.28.84-1.11,1.12-1.11.56,0-1.67-.28-3.34-.28-5.3,2.23-3.35,5.58-9.77-.28-15.63-.56-.56-1.12-.56-1.4,0-2.51,4.18,3.35,11.16,1.12,13.12-2.51-1.4-.84-9.21-5.86-14-1.12-1.12-1.68-1.12-2,.28-1.67,7,6.14,10.61,7.26,16.47a12,12,0,0,1,.28,4.46c-.28,0-.84-.55-1.12-1.11-1.67-3.63-.28-7-5.86-11.17-1.12,8.38,4.75,11.45,7,14.24l-.28.84c-1.39,1.95-4.74,1.11-4.19,6.14C84.82,173.31,80.92,172.76,81.75,174.15Z"></path><path class="cls-3" d="M82.59,170.52l1.12-.56-2.52-4.46c1.4-6.42-1.11-11.45-3.07-17.87-2.51,2-.56,12.56,1.4,17-1.4-.84-4.47-5-5-8.38-.28-1.39.56-5.86,2-8.93,2-4.19,3.9-8.38,1.67-14.52-1.11,7-5.86,10.61-4.46,20.11a17.15,17.15,0,0,1-2.24-7c1.68-5.59,6.69-10.89,5.31-16.2-2.51,3.91-5.58,5.31-5.58,12.57,0,1.11-1.12.83-1.12,0v-5.86A26.91,26.91,0,0,0,77,118c-4.47,3.91-4.75,10.33-7,15.36q-.42.82-.84,0a37.14,37.14,0,0,1,.84-7.82c6.42-9.21,7.82-14.8,6.69-21.49-1.67,4.18-5.3,17-5.58,17.3-.56-1.11,0-3.9.56-5.86,1.39-5.3,4.18-12,2.79-18.14-5.86,4.18-4.19,12.56-4.19,18.14a15.48,15.48,0,0,1-.56,5.31c-.28.56-.56.28-.56,0,0-5,.56-12-.83-15.08-4.75,5.31-1.12,12.29.28,17,.28,3.35-.28,5.86-.28,8.93-2.24-3.9.28-10.32-3.35-14.23C60.54,123.35,67,132,68.35,134c0,1.67.28,5,.28,6.42-1.39-3.91-2.79-9.23-5.86-12.57-2.51,6.42,3.07,12.28,5.86,14.51l2.79,8.94c0,.83-.83.55-1.11.27-2.52-2.51-4.47-11.16-6.7-12-2.23,5.3,4.19,14.79,8.38,14.23l5.58,10.07c-3.07,1.11-6.42-8.94-12-11.45,5,8.66,3.08,14.52,12.57,13.68Z"></path><polygon class="cls-3" points="93.48 143.72 94.59 143.72 94.59 142.32 95.43 142.32 95.43 141.21 93.48 141.21 93.48 143.72 93.48 143.72"></polygon><polygon class="cls-3" points="106.88 147.63 107.99 146.79 105.48 145.13 93.76 145.41 93.76 146.51 104.93 145.96 106.88 147.63"></polygon><path class="cls-3" d="M82.59,135.07h1.12v-4.75c0-3.34,3.07-2.79,3.07-1.11v.28h1.11v-.28c0-3.07-5.3-3.35-5.3,1.11Z"></path><path class="cls-3" d="M90.69,142.33H91.8v-7.54H96v-1.12H91.24a.6.6,0,0,0-.56.56Z"></path><polygon class="cls-3" points="97.94 143.72 99.06 143.72 99.06 142.33 99.9 142.33 99.9 141.21 97.94 141.21 97.94 143.72 97.94 143.72"></polygon><polygon class="cls-3" points="93.48 139.54 94.59 139.54 94.59 137.02 95.71 137.02 95.71 136.19 93.48 136.19 93.48 139.53 93.48 139.54"></polygon><path class="cls-3" d="M91,178.9h2.23A32.88,32.88,0,0,1,126.41,146c6.42,0,11.45,1.11,15.91,3.9a27.43,27.43,0,0,0-6.69-.83A29.67,29.67,0,0,0,106,178.9h2.24a27.28,27.28,0,0,1,27.36-27.64,26,26,0,0,1,12.84,3.35l6.42,3.63-5.3-5.59c-6.7-6.14-13.13-8.93-23.17-8.93A35.1,35.1,0,0,0,91,178.9Z"></path><polygon class="cls-3" points="80.36 123.9 83.15 122.23 82.59 112.74 80.92 112.74 80.36 123.9"></polygon><path class="cls-3" d="M79,126.69l5-5.3L89.85,125l3.34-3.63,2.52,2.23.56-.83L92.92,120l-3.34,3.9-4.75-3.07c-.83-.56-1.39-.28-1.67.28l-5,5Z"></path><path class="cls-3" d="M91,131.44h1.11v-2.23c0-2.24,2-1.68,2-.84h1.11v-.28c0-2-4.18-2.23-4.18,1.12Z"></path><polygon class="cls-3" points="106.6 143.72 107.72 143.72 107.72 141.21 108.83 141.21 108.83 140.09 106.88 140.09 106.88 143.72 106.6 143.72"></polygon><polygon class="cls-4" points="148.05 193.36 147.82 182.32 158.16 178.66 147.82 175.44 148.05 164.41 141.38 173.37 130.81 170.62 137.47 179.35 131.04 188.32 141.61 184.87 148.05 193.36"></polygon><polygon class="cls-3" points="89.58 124.74 89.3 116.37 87.61 116.37 87.33 123.9 89.58 124.74"></polygon><polygon class="cls-3" points="102.96 143.72 104.08 143.72 104.08 138.14 107.43 135.91 109.94 138.14 114.4 138.14 114.4 137.02 110.51 137.02 107.44 134.23 106.88 135.35 111.34 135.35 111.34 134.23 107.44 134.23 102.96 137.86 102.96 143.72"></polygon><polygon class="cls-3" points="98.5 116.36 96.82 138.97 97.66 138.97 99.33 116.36 98.5 116.36"></polygon><polygon class="cls-3" points="113.57 143.72 114.69 143.72 114.69 140.65 116.92 140.65 116.92 139.81 113.85 139.81 113.85 140.37 113.57 143.72"></polygon><polygon class="cls-3" points="97.94 131.15 106.88 131.15 102.13 125.57 97.94 131.15"></polygon><polygon class="cls-3" points="99.62 130.32 102.13 126.97 104.92 130.32 99.62 130.32"></polygon><polygon class="cls-3" points="91.8 121.66 94.59 121.66 94.03 111.61 92.36 111.61 91.8 121.66"></polygon><path class="cls-3" d="M86.22,111.05c2,0,2.79-1.68,5.58-.84.84.28,1.68.56,2.24,0,.28-.56-1.4-1.67-2.24-1.67-3.9-1.12-5.3.28-8.66.28-.28,0-.83-.28-1.11,0-.56.55,0,.55.28.83a7.37,7.37,0,0,0,3.9,1.4Z"></path><polygon class="cls-3" points="102.13 118.86 98.22 122.79 102.13 126.69 105.76 122.79 102.13 118.86"></polygon><polygon class="cls-3" points="102.13 120.26 104.64 123.05 102.13 125.86 99.34 123.07 102.13 120.26"></polygon><rect class="cls-3" x="99.06" y="122.49" width="5.87" height="0.84"></rect><polygon class="cls-3" points="102.13 120.26 105.2 116.35 98.78 116.35 102.13 120.26"></polygon><polygon class="cls-3" points="102.13 118.58 100.74 116.91 103.25 116.91 102.13 118.58"></polygon><path class="cls-3" d="M122.79,139c1.67-2-3.07-3.35-2.24-4.75,2.24,2.24,6.15,3.63,7.26,2-.56-3.63-5-.84-6.69-2.8,0-1.67,5.3.56,5.3-1.95-1.67-.84-5-2.51-7.81.84a4.79,4.79,0,0,1-2.51-2c2,.56,4.74-.56,5.3-1.39-.84-2.52-5-1.12-7-.56a3.74,3.74,0,0,1-2-1.68c2.23.56,4.46.28,5.3-.56.28-1.67-4.19-2.51-7.26-2.23l-2.79-4.47-1.41,1.68,3.07,4.75c-1.4,5,1.12,7.26,1.68,6.69,1.39-.83-1.4-3.34-.56-5a14,14,0,0,0,2.23,1.95c-.56,4.75,3.07,9.21,4.19,7.54,1.39-1.4-2.79-3.63-1.68-5a5.05,5.05,0,0,0,2.51,1.68c1.12,2.79,3.91,5.86,5,5.3Z"></path><path class="cls-3" d="M79.52,103.52c2.23.56,2.23,1.68,7.82-3.34l2.79-2.51c3.34-2.79,4.74-1.68,6.42-.56L97.66,96C96,94.6,93.48,92.92,89,96.55l-2.78,2.52c-3.35,2.79-2,2.23-6.69,4.46Z"></path><path class="cls-3" d="M103,115.8v-3.35c0-4.46-3.07-3.9-4.46-7.81-1.12,4.18-1.12,6.42,2.23,9.77-.56-1.4-1.67-3.07,0-4.47,1.12.84,1.4,1.4,1.12,3.91v2.23H103Z"></path><path class="cls-3" d="M164.24,175.54c1.11,2,3.91,1.11,4.46,0,.28-.84-1.67-2.24-2.79-2.51-1.67-.27-2.5,1.12-1.67,2.52Z"></path><path class="cls-3" d="M113.85,120.82a1.4,1.4,0,1,0-1.4-1.4h0a1.32,1.32,0,0,0,1.22,1.41.6.6,0,0,0,.19,0Z"></path><path class="cls-3" d="M163.68,184.62c1.4.84,2.24-.56,2.24-1.4.28,0,5.58,1.12,5-2.51,1.4,0,2.52-.28,3.35-2.51.84.28,2.51,0,2.23-1.68.28-.27,2.24.84,2.24-2.51,1.39,0,2.79-2.79.84-3.07-.56-.28-.28-1.11,0-1.39.55-1.12,1.39-2.51-.28-3.07-.84-.28,0-1.4-.56-1.68a1.69,1.69,0,0,0-2.24.28c-.56.56-.28,1.12-.56,1.68a2.06,2.06,0,0,0-.83,3.34,1.27,1.27,0,0,1,0,1.4c-.28.28-1.12.28-1.12,1.11,0,1.12.84,1.12,1.4,1.12,0,1.12.28,2.51-.28,2.79-.84.56,0-1.67-2-2.79.28-1.4.56-3.35-.56-3.35,0-.83.56-2.79-1.67-3.34a2.1,2.1,0,0,0-2-2c-1.39,0-1.39,1.4-1.39,2a1.13,1.13,0,0,0,.28,2.23c-.84,2.24.56,3.07,1.95,3.35-.83,2.23,1.68,2.79,2.79,3.34.56.28.56,1.4,0,1.12-1.11-.56-3.34-1.4-4.74,1.4a3.42,3.42,0,0,0-2.51.28C164.24,179.74,161.73,183.78,163.68,184.62Z"></path><path class="cls-3" d="M82.87,106.32c6.69,0,10.61-3.63,13.4-6.42,2-2,3.07-3.35,5.3-3.08,7.26,1.12,8.66,1.68,11.17.56a4.6,4.6,0,0,1,1.67-.83l.84-2.24c-5.3,2.79-5.58,2.79-13.12.84-3.07-.84-5,1.68-7,3.63-3.07,2.79-10.61,7.54-16.75,7.54Z"></path><polygon class="cls-3" points="181.83 166.61 182.94 166.61 182.94 161.31 162.29 161.31 162.29 162.43 181.83 162.43 181.83 166.61"></polygon><path class="cls-3" d="M152.52,149.87c.56.28,1.11-.28.84-1.68,3.9.84,3.62-3.91,2.23-3.91-2.51,0-1.68,1.68-3.35,1.68-.28,0-.56-.28-.28-1.12.84-.56,2,0,2.51-1.39,0-.84-.83-1.12-.27-2,.83,0,2.23-2,1.11-2.79-.28-.28,0-.28.56-.84a1.57,1.57,0,0,0,0-2.51,2.07,2.07,0,0,0-.84-1.95,1.23,1.23,0,0,0-1.39,0c-.84.56-.84,1.67-.56,2.79-.84,0-1.4.28-1.12,1.67a1.72,1.72,0,0,0-.28,1.68c.56.84,0,1.12-.28,1.12-.55,0,0,.83,0,1.11.28.56.28,1.12-.28,1.12A11,11,0,0,0,150,140.1c0-.56.28-1.12.28-1.68.83.28,1.11-.28.83-1.11-.27-.56-.55-1.68,0-2,1.12,0,1.4-1.39,0-2.23-.55-.28-.27-.84,0-1.4.84-1.11.28-2.51-.83-1.67,0-1.68-.56-3.07-2-3.07-1.11,0-2,1.39-1.39,2.79-1.68-.56-2.79,3.63-.84,3.9-.83,2,0,2.52,1.68,3.35-.56.84-.56,1.68.28,1.95.28.84,1.39,2.24.83,2.52-1.11-.84-1.67-3.63-3.63-3.07-.28-2.24-5.3-3.91-5.3-2.8-.28,3.63,1.67,7.82,5.86,7.82,1.68.28,2.79-1.12,4.75.84v1.95l-1.12.28a.59.59,0,0,0,.28,1.11c2.23-.28,1.67,1.68,2.79,2.24Z"></path><polygon class="cls-3" points="166.2 161.87 176.52 161.87 179.87 156.85 162.85 156.85 166.2 161.87"></polygon><polygon class="cls-3" points="166.76 161.31 164.52 157.68 178.2 157.68 175.97 161.31 166.76 161.31"></polygon><path class="cls-3" d="M127,140.65c.83.56,3.34-.83,4.46-2.23,1.68-2,1.68-2.79,3.35-4.19,1.67.28-2.79,5.58-.56,5.58,3.35,0,1.68-5,2.51-7a27.1,27.1,0,0,1,2.51-2.79c.56.56.28,1.68,0,2.51-.56,1.68-1.39,3.07-.28,3.07.84,0,2-.83,2.52-2.79A7,7,0,0,0,142,130c0-.56-.27-1.39-.27-2.23.83-.84,1.39-3.35,1.95-3.63.84.28,0,3.34,0,4.19,0,.55.56,1.39,1.68.27,1.39-1.39.55-4.74-.28-6.42.28-1.11.83-2,1.11-3.07.28,1.12,1.68,8.1,2.79,5,1.68-5-2.23-6.14-2-7.82l.83-4.46c0-.84-.27-.84-.27-.84l-1.12-.56a.67.67,0,0,0-.95,0,.72.72,0,0,0-.17.51A31.71,31.71,0,0,1,144,121.67c-1.68,0-8.1,1.67-7.26,3.9.28.84,2.23.84,3.63,0a10.31,10.31,0,0,1,2.23-1.39c-.28.84-1.95,3.63-2.51,3.34-1.39-.83-8.09,1.12-6.69,2.52.84.83,1.67.56,2.79.28.84,0,1.68-.84,2.51-.84l-2.23,2.23a4.48,4.48,0,0,0-4.47.56c-1.39.84-2.79,2-1.95,2.51s1.95-.28,3.07-.83,2.23-1.12,2.23-.56c-.28.84-4.46,3.07-6.69,5-1.67.28-2.79,1.68-1.67,2.24Z"></path><path class="cls-3" d="M103.25,94.59l3.91-1.67a10.18,10.18,0,0,1,6.42.28l2,.83,2.79-1.11L113,91.24a8.5,8.5,0,0,0-5.86,0L100.46,94Z"></path><polygon class="cls-3" points="167.87 149.59 164.53 149.03 167.6 146.24 167.87 149.59"></polygon><rect class="cls-3" x="121.66" y="98.22" width="1.68" height="12.01"></rect><polygon class="cls-3" points="167.87 156.56 169.55 156.56 164.24 150.42 167.87 150.98 167.87 153.77 170.38 154.33 170.38 156.56 171.5 156.56 171.5 154.33 174.29 154.89 172.34 156.57 174.29 156.57 176.8 154.61 168.14 144.28 162.01 149.59 167.87 156.56"></polygon><path class="cls-3" d="M112.18,123.9h2.24c-2-3.63-2.8-5-4.75-6.14,1.4-2,5.86-2.23,7.82.84V98.22a2.23,2.23,0,1,1,4.46,0h1.68V92.36c0-3.63,4.75-3.63,4.75,0v5.86h1.67a2.24,2.24,0,1,1,4.47,0v20.1c3.07-3.35,7.53-4.19,9.21-2.51-1.4.84-2.79,2.51-4.19,6.42l2-.84a11.45,11.45,0,0,1,4.18-5.59c-1.12-3.35-5.87-3.91-9.22-1.4V98.22c0-5.3-7.81-5.3-7.81,0h1.67V92.36c0-5.86-7.81-5.86-7.81,0v5.86h1.67a3.77,3.77,0,1,0-7.53,0v17c-3.35-1.67-7.54-.28-8.38,2.79.56,1.12,2.79,3.35,3.91,5.86Z"></path><polygon class="cls-3" points="174.29 153.77 168.99 152.66 168.71 147.35 174.29 153.77"></polygon><path class="cls-3" d="M139.12,118.6a1.27,1.27,0,0,0,1.11-1.4,1.19,1.19,0,0,0-1.11-1.11,1.28,1.28,0,0,0-1.4,1.11,1.32,1.32,0,0,0,1.24,1.4Z"></path><rect class="cls-3" x="128.23" y="98.22" width="1.68" height="12.01"></rect><path class="cls-3" d="M160.33,148.75c1.12,0,2.24-3.63,2.8-6.42.28-1.12,1.11-3.35,1.67-1.4,1.4,5.31,2.23,4.47,2.51,3.35s-.56-8.38-2.23-8.1-2.24,3.07-3.07,4.47-1.12.28-1.12-.28c1.4-6.14,4.75-11.17,3.63-15.35a3.25,3.25,0,0,1,1.12-2.8c.28-.55-.28-1.11-1.12-.55l-3.63,2.51c-.56.28-1.39,1.12-.56,1.4s3.07-1.12,3.07.56c0,4.18-3.34,10-4.18,14.51.83-5.3.28-10.88-1.12-12.84-1.67-2.52-2.51-3.35-2.51-2C156.15,129.2,157,132,157,137c.56,4.46,2.8,11.72,3.35,11.72Z"></path><path class="cls-3" d="M159.22,124.18c2.79-1.39-1.12-4.18-3.91-3.9-.56,1.11,1.67,5,3.91,3.9Z"></path><path class="cls-3" d="M156.15,119.16c2.51-1.12-1.4-3.91-3.91-3.63,0,.56,1.67,4.74,3.91,3.63Z"></path><path class="cls-3" d="M153.63,114.42c2-.84-1.11-4.19-4.18-3.63C149.17,111.62,151.12,115.25,153.63,114.42Z"></path><path class="cls-3" d="M162.3,122.52c1.67-1.12-.84-3.63-2.8-3.63-.56,1.66,1.11,4.73,2.79,3.62Z"></path><path class="cls-3" d="M169.27,145.13c1.11,0,2.23-2.79,2.23-3.07S174,137,174,139c-.28,3.63,1.68,3.07,2.51,5.86.84-2.24-.28-9.49-1.95-9.49-1.68.28-2.24,2.23-3.07,3.9-.28.28-.56.28-.28-.28,2.23-5.86,4.46-14.23,3.07-18.42a2.86,2.86,0,0,1,1.11-2.79c.28-.28-.28-.84-1.11-.28l-3.91,2.79c-.56.28-.56,1.12.28,1.12s2.51-.28,2.79.83c.84,4.47-1.67,12-3.34,15.36.55-5,1.11-8.38.27-10.61-.83-3.07-2.79-3.35-2.51-2a83.25,83.25,0,0,1,.84,13.12c0,3.63,0,7,.56,7Z"></path><path class="cls-3" d="M159.22,117.2c1.67-1.11-.84-3.34-2.51-3.34C156.15,115.81,157.26,118.6,159.22,117.2Z"></path><path class="cls-3" d="M156.15,112.74c1.39-1.4-1.12-3.63-2.52-3.63C153.08,111.06,154.75,113.85,156.15,112.74Z"></path><path class="cls-3" d="M151.68,108.55c1.68-1.4-2-3.63-4.19-2.79l-5-8.38h-.28l5,8.66c.56,1.4,2.79,3.91,4.47,2.52Z"></path><path class="cls-3" d="M111.62,91.8c0-7.54,6.7-14,14.52-14a14.18,14.18,0,0,1,14,14l6.69-3.63-4.19-.83,7.82-4.75-9.21,2,3.63-4.46-5.3,1.67L144,75.33l-6.69,4.19,1.11-4.47-3.63,2.79.84-8.66-4.19,7.26-.84-6.14-2.79,5L125.3,67l-1.67,8.38-2.79-4.19-.28,5.59-5.3-6.56,1.67,7.53-5.31-4.18,2.51,5.86-10.32-5.86,7,8.66-5.31-1.67,3.91,3.35L98.5,82.73l10.89,4.47L103,88.59Z"></path><path class="cls-3" d="M164.24,120.83c2.79-2,.28-5-.83-5.86C162,116.65,162,122.23,164.24,120.83Z"></path><polygon class="cls-3" points="148.89 104.64 150.01 104.64 144.43 96.55 144.43 96.55 148.89 104.64"></polygon><path class="cls-3" d="M161.17,115.8c2.79-1.68.28-5-1.11-6.42C158.94,111.62,159.22,117.2,161.17,115.8Z"></path><path class="cls-3" d="M158.1,111.33c2.79-2.23.28-5-1.12-5.86-.83,2.24-.83,7.27,1.12,5.87Z"></path><polygon class="cls-3" points="151.68 104.08 151.96 102.97 146.66 95.43 146.66 95.43 151.68 104.08"></polygon><path class="cls-3" d="M182.39,154.33l.83-.28a.53.53,0,0,0,.28-.83c-3.34-13.68,7.82-21.5,3.35-33.78-.28-.84-.84-.84-.84.28,1.4,7.81-3.34,15.91-4.74,24-1.12-12.58,4.47-19.83,2.51-26.8-.56-1.68.28-3.35,1.4-5,.28-.56-.56-.56-.84-.28l-5.58,3.63c-.84.56-.28,1.4.28,1.12,1.68-.56,3.07-.28,3.63.83,2,4.19-2.51,13.12-2.79,19.27-1.4-3.08,1.11-13.13-2.51-13.13s-1.4,6.15-2.24,8.94c1.4.28,1.12-4.47,2.24-3.91-.56,8.93,2.23,17,4.74,25.12-.28.56,0,.84.28.84Z"></path><path class="cls-3" d="M137.17,94.87l1.39-.83c2-1.12,4.19-2,5.86-1.68l3.63.56,3.63-1.12-7.81-1.11a8.35,8.35,0,0,0-5.31,1.11l-3.91,1.68Z"></path><path class="cls-3" d="M153.63,106.6c2-1.4.84-4.19-.27-5l-4.75-7v.28l4.19,7.54c-.28,1.12-.84,5.31.83,4.19Z"></path><path class="cls-3" d="M171.22,118.32c1.68-1.4-1.95-3.07-4.19-2.24,0,.57,2.52,3.64,4.19,2.24Z"></path><path class="cls-3" d="M168.71,114.42c1.95-1.39-2-3.34-4.19-2.51C164.24,112.74,167,115.8,168.71,114.42Z"></path><path class="cls-3" d="M166.47,110.79c1.68-1.39-1.95-3.07-4.18-2.51-.28.83,2.51,3.9,4.19,2.5Z"></path><path class="cls-3" d="M164,106.87c1.68-1.39-2-3.34-4.18-2.51C159.5,105.2,162.29,108.27,164,106.87Z"></path><path class="cls-3" d="M173.17,116.65c2-1.12.28-5-.55-5C170.94,113.58,171.22,117.77,173.17,116.65Z"></path><path class="cls-3" d="M161.45,103c2-1.4-1.95-3.63-3.91-2.79l-5-6.7h0l4.74,7c.28,1.39,2.52,3.63,4.19,2.51Z"></path><path class="cls-3" d="M170.66,112.74c2.24-1.12.28-4.75-.56-4.75-1.67,1.68-1.39,5.86.56,4.75Z"></path><path class="cls-3" d="M168.43,109.11c2.23-1.12.28-5-.56-5C166.2,105.76,166.48,110.23,168.43,109.11Z"></path><polygon class="cls-3" points="158.38 98.78 159.5 98.78 154.47 92.09 154.47 92.09 158.38 98.78"></polygon><path class="cls-3" d="M165.64,105.2c2.23-1.4.28-5-.56-5C163.68,102.13,164,106.6,165.64,105.2Z"></path><polygon class="cls-3" points="161.17 97.94 161.45 96.83 156.99 90.97 156.99 90.97 161.17 97.94"></polygon><path class="cls-3" d="M178.48,113.85c2.23-1.4-1.11-3.9-3.63-3.62-.28,1.11,1.67,5,3.63,3.62Z"></path><path class="cls-3" d="M163.41,101.29c2.23-1.11.55-4.46-.28-5.3l-4.46-5.86h0l3.9,6.42C162,98.22,161.45,102.41,163.41,101.29Z"></path><path class="cls-3" d="M175.69,109.39c2.23-1.12-1.12-3.91-3.63-3.63-.28.84,1.67,4.74,3.63,3.63Z"></path><path class="cls-3" d="M173.17,104.64c2-1.11-1.11-3.34-3.63-3.34C169.27,102.41,171.5,105.76,173.17,104.64Z"></path><path class="cls-3" d="M181,112.18c1.4-1.12-.84-3.07-2.23-3.07-.84,1.67.84,4.47,2.23,3.07Z"></path><path class="cls-3" d="M178.48,107.71c1.39-1.11-.84-3.34-2.51-3.34C175.41,106,176.8,109.11,178.48,107.71Z"></path><path class="cls-3" d="M175.69,103.53c1.11-1.12-.84-3.35-2.24-3.35-.55,1.67,1.12,4.18,2.24,3.34Z"></path><path class="cls-3" d="M171.78,99.62c1.68-1.4-1.67-3.63-3.91-2.79l-6.14-8.1h0l5.86,8.66c.28,1.11,2.51,3.62,4.19,2.23Z"></path><path class="cls-3" d="M182.67,111.07c2.51-2,.28-4.75-.84-5.59-.84,1.67-.84,6.7.84,5.58Z"></path><polygon class="cls-3" points="168.99 95.71 170.11 95.71 163.96 87.47 163.68 87.47 168.99 95.71"></polygon><path class="cls-3" d="M180.16,106.32c2.23-1.95.28-4.47-.84-5.86-1.4,2.23-.84,7.25.83,5.86Z"></path><path class="cls-3" d="M177.37,102.13c2.51-1.68.28-4.47-.84-5.31C175.41,98.5,175.41,103.25,177.37,102.13Z"></path><polygon class="cls-3" points="171.78 94.87 172.34 94.03 166.48 86.08 166.2 86.08 171.78 94.87"></polygon><path class="cls-3" d="M174,97.66c2-1.11.56-4.46-.28-5.3l-5.58-7.54v.27l5,8.1c-.55,1.39-1.11,5.58.84,4.47Z"></path><path class="cls-3" d="M39.88,57.66a3,3,0,0,1,.5,1.17,2.52,2.52,0,0,0-1.33.28c-.3.15-.53.16-.7,0s-.18-.7-.15-1.78a.86.86,0,0,0,.39.14l.49,0,.45,0A.61.61,0,0,1,39.88,57.66Zm1.61-1.89a3,3,0,0,1,.5,1.17,2.52,2.52,0,0,0-1.33.28c-.3.15-.53.16-.7,0s-.18-.7-.15-1.78a.76.76,0,0,0,.39.14l.49,0,.45,0A.61.61,0,0,1,41.49,55.77Zm8.81,3.92-5.25,6.15a1.79,1.79,0,0,0-.28-.82,1.1,1.1,0,0,0-.25-.13l-.4-.14-.43-.18a1.59,1.59,0,0,1-.36-.23,1.84,1.84,0,0,1-.66-1.3l-.2-2.52-1.36-.31-.1-2,1.29.3-.08-1a3.38,3.38,0,0,0,.78,1,5.93,5.93,0,0,0,1.94.67l3.1.72,1-1.21Zm-3.67,1.82L45,61.13a2.51,2.51,0,0,1-1-.41s0,.07,0,.17,0,.21,0,.34,0,.24.07.36a.54.54,0,0,0,.11.23,1.49,1.49,0,0,0,.62.27l1.06.24.22-.23.18-.22.16-.19Z"></path><path class="cls-3" d="M54.45,55.56l-1.2,1.23a2.78,2.78,0,0,1,0,.37c0,.15,0,.33,0,.52l0,2.29a2.32,2.32,0,0,0-.69-.26,5.31,5.31,0,0,0-.89-.13,4.74,4.74,0,0,0-.86.05.94.94,0,0,0-.56.24l-.53.54-1.15-1.12.5-.52a2.86,2.86,0,0,1,1.63-.29h1.59a.87.87,0,0,0-.23-.48,3.24,3.24,0,0,0-.92-.4l-1-.33a4.19,4.19,0,0,1-1.44-.64,1.83,1.83,0,0,1-.53-1.25l0-1.84a3,3,0,0,0,.49.69,3.36,3.36,0,0,0,1.26.58l1.51.49.45.15.3.11,1.1-1.13Zm-.57,5.56a3.1,3.1,0,0,1,.42,1.19A2.6,2.6,0,0,0,53,62.5c-.31.14-.54.13-.7,0a4,4,0,0,1,0-1.79.78.78,0,0,0,.39.17l.48.06.45,0A.57.57,0,0,1,53.88,61.12Zm1.73-1.78a3.23,3.23,0,0,1,.43,1.2,2.53,2.53,0,0,0-1.35.19c-.31.13-.54.13-.7,0a3.91,3.91,0,0,1,0-1.8.71.71,0,0,0,.38.17,3.93,3.93,0,0,0,.48.06l.46.06A.63.63,0,0,1,55.61,59.34Z"></path><path class="cls-3" d="M50.31,48a3,3,0,0,1,.35,1.22,2.5,2.5,0,0,0-1.35.11c-.32.11-.56.09-.7-.07a3.85,3.85,0,0,1,.08-1.79.81.81,0,0,0,.37.19l.48.09.45.09A.57.57,0,0,1,50.31,48Zm9.76,2.52-2.36,2.11-.23,3.2a2,2,0,0,0-.7-.28,4.94,4.94,0,0,0-1-.12,4.12,4.12,0,0,0-.94.07,1.27,1.27,0,0,0-.66.27l-.42.38L52.72,55l.4-.36A2.46,2.46,0,0,1,55,54.22a4.64,4.64,0,0,0,1.43,0c.21-.19.25-.36.11-.51s-.46-.19-1.06-.21l-2-.06A1.66,1.66,0,0,1,52.25,53,1.63,1.63,0,0,1,52,51.77l.27-5.3a3.46,3.46,0,0,0,.45.73,3.8,3.8,0,0,0,1.22.66l2.09.81a3.55,3.55,0,0,1,1.27.72,1.8,1.8,0,0,1,.51,1L59,49.35Zm-3.37.39a1.53,1.53,0,0,0-.62-.36l-1.81-.67a1,1,0,0,1-.42-.24l-.19-.22-.1-.13c-.09.64-.05,1.07.15,1.28a1.61,1.61,0,0,0,.7.41l1.57.55a2.48,2.48,0,0,1,.5.22,1.69,1.69,0,0,1,.29.22l0,0,0,0A1.67,1.67,0,0,0,56.7,50.94Z"></path><path class="cls-3" d="M63,47.15a1.81,1.81,0,0,1,.24.34,1.26,1.26,0,0,1,.13.34,2.13,2.13,0,0,1,0,.45c0,.18,0,.4-.08.66L63,51.2a2.56,2.56,0,0,0-.65-.35,6.2,6.2,0,0,0-.87-.24,5.33,5.33,0,0,0-.86-.07,1,1,0,0,0-.59.17l-.59.47-1-1.27.57-.45c.2-.16.75-.18,1.65-.07l1.58.22A.82.82,0,0,0,62,49.1a3.16,3.16,0,0,0-.85-.51l-1-.46a4.22,4.22,0,0,1-1.34-.83,1.86,1.86,0,0,1-.36-1.3l.26-1.83a2.84,2.84,0,0,0,.4.75,3.4,3.4,0,0,0,1.17.75l1.43.67A3.52,3.52,0,0,1,63,47.15Zm.44,5.27a3.12,3.12,0,0,1,.26,1.24,2.48,2.48,0,0,0-1.35,0q-.5.14-.69-.12c-.11-.13,0-.73.19-1.78a.81.81,0,0,0,.36.22l.47.12.45.12A.62.62,0,0,1,63.43,52.42Zm1.95-1.53a3.07,3.07,0,0,1,.26,1.24,2.48,2.48,0,0,0-1.35,0c-.33.1-.56.06-.69-.11s0-.73.19-1.78a.8.8,0,0,0,.36.21l.47.13.45.11A.57.57,0,0,1,65.38,50.89Z"></path><path class="cls-3" d="M70.84,42.78l-2,1.38L67.75,50a3.47,3.47,0,0,1-1.51,2.24,2.22,2.22,0,0,1-.61.29,5.58,5.58,0,0,0,.69-1.08,6.42,6.42,0,0,0,.49-1.58l.85-4.42a2.21,2.21,0,0,0-.08-1.58,7.53,7.53,0,0,0-1.1-.66l-.93-.51a4.67,4.67,0,0,1-1.3-.9A1.88,1.88,0,0,1,64,40.47l.36-1.81a3,3,0,0,0,.36.78,3.65,3.65,0,0,0,1.12.81l1.4.76a4.44,4.44,0,0,1,1.44,1.07,1.37,1.37,0,0,1,.11.18l1.16-.8Z"></path><path class="cls-3" d="M73.51,40.63a1.64,1.64,0,0,1-.81,1.18l-2.58,1.55L69.29,42l1.22-.73a.46.46,0,0,0,.15-.16.85.85,0,0,0,.09-.24.7.7,0,0,0,0-.25.48.48,0,0,0-.07-.23l-3.37-5.58A8.2,8.2,0,0,0,64.79,33c.41-.25.76-1.2,1-2.84l5.88,9.74a4.33,4.33,0,0,0,.4.58,1,1,0,0,0,.37.28.86.86,0,0,0,.43,0A6,6,0,0,0,73.51,40.63Z"></path><path class="cls-3" d="M79,38c0,.23-.45.56-1.25,1a7.16,7.16,0,0,1-1.2.53,1.86,1.86,0,0,1-.91.09,1.26,1.26,0,0,1-.7-.35,3.18,3.18,0,0,1-.58-.8l-3.17-5.92a8,8,0,0,0-2.44-1.95c.49-.26.88-1.19,1.19-2.78l4.86,9.07a3.5,3.5,0,0,0,.53.79,1.83,1.83,0,0,0,.63.48,2.09,2.09,0,0,0,.81.18,4.65,4.65,0,0,0,1.07-.08l.5-.11Z"></path><path class="cls-3" d="M81.22,27.15a3.06,3.06,0,0,1-.07,1.27,2.57,2.57,0,0,0-1.31-.35c-.34,0-.56-.09-.64-.29s.16-.71.67-1.67a.71.71,0,0,0,.29.31c.13.08.27.17.41.24l.4.23A.56.56,0,0,1,81.22,27.15Zm8.39,6.52-7.46,3.12a1.75,1.75,0,0,0,.12-.86.88.88,0,0,0-.17-.23l-.29-.31-.3-.35a1.63,1.63,0,0,1-.22-.37,1.83,1.83,0,0,1,0-1.45l.95-2.35L81.17,30,82,28.15,83,29l.38-.94a3.58,3.58,0,0,0,.26,1.23,5.79,5.79,0,0,0,1.43,1.46l2.44,2.06L89,32.18Zm-6.1-7.47a3,3,0,0,1-.07,1.26,2.57,2.57,0,0,0-1.31-.35c-.34,0-.56-.09-.64-.29s.16-.71.67-1.66a.75.75,0,0,0,.29.3,3.38,3.38,0,0,0,.41.24l.4.23A.58.58,0,0,1,83.51,26.2Zm2,7.44-1.25-1.06a2.6,2.6,0,0,1-.73-.83,1.36,1.36,0,0,1-.06.16c0,.09-.08.2-.12.32s-.07.24-.09.35a.47.47,0,0,0,0,.26,1.62,1.62,0,0,0,.43.52l.84.69a2.09,2.09,0,0,0,.3-.11l.26-.11.23-.1Z"></path><path class="cls-3" d="M95.16,31.87l-1.61.55c0,.09-.08.21-.14.35l-.23.47-1.07,2a2.41,2.41,0,0,0-.5-.55,5.4,5.4,0,0,0-.74-.51,4.16,4.16,0,0,0-.79-.35,1,1,0,0,0-.61,0l-.71.24-.52-1.52.68-.23c.24-.09.77.07,1.58.48l1.42.72a.88.88,0,0,0,0-.53,3.19,3.19,0,0,0-.64-.77l-.75-.75a4.31,4.31,0,0,1-1-1.23,1.88,1.88,0,0,1,.09-1.35l.85-1.64a3.37,3.37,0,0,0,.13.84,3.47,3.47,0,0,0,.86,1.1l1.13,1.11.33.33.22.24,1.49-.51Zm-3,4.69A3.14,3.14,0,0,1,92,37.82a2.51,2.51,0,0,0-1.29-.43c-.34,0-.54-.14-.61-.34s.2-.7.77-1.62a.82.82,0,0,0,.27.33l.4.27.39.25A.73.73,0,0,1,92.15,36.56Zm2.34-.8A3,3,0,0,1,94.33,37a2.55,2.55,0,0,0-1.28-.44c-.34,0-.54-.13-.61-.33s.2-.7.77-1.62a.82.82,0,0,0,.27.33l.4.27c.14.08.26.17.38.25A.59.59,0,0,1,94.49,35.76Z"></path><path class="cls-3" d="M102.61,29.9l-8.32,2.23-.41-1.56,1-.26L94.56,30a1.31,1.31,0,0,1-.32-.51,1.5,1.5,0,0,1,.19-1.13l2.78-4.83a3.64,3.64,0,0,0,.09,1.25,4.9,4.9,0,0,0,1.06,1.46l2.3,2.54,1.54-.41Zm-4.06-.58L97.46,28.1a2.49,2.49,0,0,1-.61-.92l-.08.15a2.11,2.11,0,0,0-.16.3c-.06.12-.1.23-.15.34a.39.39,0,0,0,0,.25,1.28,1.28,0,0,0,.35.57l.74.81.31-.08.27-.07.24-.07A1.05,1.05,0,0,0,98.55,29.32Z"></path><path class="cls-3" d="M108.4,28.85l-1.68.33a2.92,2.92,0,0,1-.18.33l-.29.43-1.33,1.86a2.58,2.58,0,0,0-.42-.61,5.58,5.58,0,0,0-.67-.61,5.35,5.35,0,0,0-.73-.45,1,1,0,0,0-.6-.12l-.74.15-.31-1.59.7-.13c.26-.05.76.18,1.51.69l1.3.9a.84.84,0,0,0,.09-.52,3.18,3.18,0,0,0-.53-.85l-.65-.85a4.39,4.39,0,0,1-.82-1.35,1.85,1.85,0,0,1,.27-1.32l1.06-1.51a3.27,3.27,0,0,0,0,.85,3.62,3.62,0,0,0,.7,1.2l1,1.25.29.38c.07.1.14.19.18.26l1.55-.3Zm-4.77-6.53a3,3,0,0,1-.32,1.23,2.57,2.57,0,0,0-1.22-.61c-.33-.06-.52-.2-.56-.41s.3-.67,1-1.5a.78.78,0,0,0,.22.36l.36.32c.12.1.24.2.34.3A.58.58,0,0,1,103.63,22.32Z"></path><path class="cls-3" d="M109.41,21.37a3,3,0,0,1-.4,1.2,2.54,2.54,0,0,0-1.17-.67q-.5-.13-.54-.45c0-.17.33-.65,1.07-1.44a.8.8,0,0,0,.2.37l.34.34c.12.12.23.22.33.33A.53.53,0,0,1,109.41,21.37Zm4.82,6.73-1.7.23a2.21,2.21,0,0,1-.2.32l-.31.42-1.44,1.78a2.25,2.25,0,0,0-.39-.63,3.92,3.92,0,0,0-.63-.66,3.87,3.87,0,0,0-.7-.49,1,1,0,0,0-.59-.15l-.75.1-.22-1.6.72-.09c.25,0,.74.22,1.46.77l1.25,1a.82.82,0,0,0,.11-.51,3.14,3.14,0,0,0-.48-.88l-.59-.89a4.45,4.45,0,0,1-.75-1.39,1.88,1.88,0,0,1,.35-1.31l1.15-1.44a3.16,3.16,0,0,0,0,.85,3.31,3.31,0,0,0,.63,1.23l.9,1.31.25.39a2.62,2.62,0,0,1,.17.28l1.57-.21ZM111.87,21a2.93,2.93,0,0,1-.4,1.2,2.52,2.52,0,0,0-1.18-.67c-.32-.09-.5-.23-.53-.45s.33-.65,1.07-1.43a.69.69,0,0,0,.2.36c.11.12.22.24.34.35l.33.32A.56.56,0,0,1,111.87,21Z"></path><path class="cls-3" d="M117.59,27.28a1.64,1.64,0,0,1-1.24.7l-3,.26-.14-1.61,1.43-.12a.47.47,0,0,0,.2-.08.72.72,0,0,0,.18-.17.71.71,0,0,0,.13-.22.47.47,0,0,0,0-.23l-.55-6.5a8.3,8.3,0,0,0-1.47-2.76c.48,0,1.21-.73,2.19-2.08l1,11.34a4.54,4.54,0,0,0,.11.69,1.06,1.06,0,0,0,.21.41.81.81,0,0,0,.37.23A4,4,0,0,0,117.59,27.28Z"></path><path class="cls-3" d="M123.64,27.36q-.21.29-1.56.33a6.49,6.49,0,0,1-1.31-.06,2,2,0,0,1-.86-.31,1.37,1.37,0,0,1-.47-.63,2.93,2.93,0,0,1-.16-1L119.05,19a8.31,8.31,0,0,0-1.33-2.82c.55,0,1.32-.68,2.3-2l.34,10.28a4.18,4.18,0,0,0,.13.94,1.77,1.77,0,0,0,.36.71,2.27,2.27,0,0,0,.64.53,4.54,4.54,0,0,0,1,.39l.49.13C123.18,27.23,123.39,27.29,123.64,27.36Z"></path><path class="cls-3" d="M130.43,26.23a2.26,2.26,0,0,1-.87,1.53l-4.35,4.07a3.46,3.46,0,0,1-2.54.91,2,2,0,0,1-.66-.12l.57-.18a4,4,0,0,0,.6-.28,6.22,6.22,0,0,0,.65-.41,8.57,8.57,0,0,0,.7-.58l1.91-1.77c.29-.27.44-.48.44-.63s-.16-.39-.48-.72l-1.62-1.67c-.12-.13-.23-.24-.3-.33a1.49,1.49,0,0,1-.18-.24.65.65,0,0,1-.08-.22,2.19,2.19,0,0,1,0-.29,1.19,1.19,0,0,1,.21-.63,3.28,3.28,0,0,1,.42-.48l3.93-3.76a2.7,2.7,0,0,0-.12.7,4.38,4.38,0,0,0,.54,1.67l.68,1.43A4.8,4.8,0,0,1,130.43,26.23Zm-1.51.49a1.48,1.48,0,0,0-.2-.7l-.86-1.72a.88.88,0,0,1-.14-.47,2.27,2.27,0,0,1,0-.28.65.65,0,0,1,0-.17c-.51.41-.77.75-.78,1a1.87,1.87,0,0,0,.24.78l.77,1.47a2.29,2.29,0,0,1,.21.51,1.12,1.12,0,0,1,.06.35.13.13,0,0,1,0,.06v.06C128.69,27.25,128.92,26.94,128.92,26.72Z"></path><path class="cls-3" d="M143.4,29.35l-8-1.14c.34-.33.52-.55.54-.68a1,1,0,0,0,0-.28c0-.12-.06-.26-.09-.41s-.06-.31-.08-.47a1.49,1.49,0,0,1,0-.42,1.85,1.85,0,0,1,.75-1.25l2-1.53L138,21.86l1.64-1.16.44,1.25.81-.61a3.56,3.56,0,0,0-.4,1.19,5.64,5.64,0,0,0,.47,2l1.05,3,1.57.22Zm-3.87-9.89a3.12,3.12,0,0,1-.71,1.05,2.53,2.53,0,0,0-.95-1c-.3-.18-.43-.37-.4-.58s.5-.53,1.43-1.09a.79.79,0,0,0,.09.41c.07.14.15.29.23.42s.16.28.23.4A.63.63,0,0,1,139.53,19.46Zm.36,7.76-.53-1.55a2.57,2.57,0,0,1-.2-1.08l-.14.1-.26.22-.26.25a.52.52,0,0,0-.14.22,1.52,1.52,0,0,0,.1.66l.37,1,.31.06.28,0,.25,0Zm2.1-7.41a3.21,3.21,0,0,1-.72,1.05,2.5,2.5,0,0,0-.94-1c-.3-.18-.43-.37-.4-.58s.5-.53,1.42-1.09a.73.73,0,0,0,.1.41c.07.14.15.28.23.42l.23.4A.72.72,0,0,1,142,19.81Z"></path><path class="cls-3" d="M151.36,32.8a1,1,0,0,1-.53,0,5.15,5.15,0,0,1-3.38-2.48l-5-1.16.36-1.57,3.92.91-.58-1.59a2.87,2.87,0,0,0-.52-.91,1.23,1.23,0,0,0-.63-.4,2.09,2.09,0,0,0-1,0l2.35-1.46c.55-.34.93-.49,1.14-.44s.31.36.46,1l1.12,4.65a5.63,5.63,0,0,0,1.62,3A3.43,3.43,0,0,1,151.36,32.8Z"></path><path class="cls-3" d="M157.08,33l-4.15-1.29c-.83-.26-1.18-.61-1.05-1l.35-1.11a3.23,3.23,0,0,0,2-.41l1.08-.49.22.91a6,6,0,0,0-1,.59c-.06.2.08.36.43.47l.49.15c.29.09.47,0,.55-.23a3.83,3.83,0,0,0-.09-1l-.57-3.38a7.84,7.84,0,0,1-.19-2.49l.14-.45a8.21,8.21,0,0,0-.32-3.11c.46.15,1.4-.22,2.82-1.1l-1.12,3.57a3.5,3.5,0,0,0-.1,1.37q0,.3.27,1.83l.73,4.48a4.62,4.62,0,0,1-.2,2.07Zm2.51-6.89a6.2,6.2,0,0,1-2,2.34l-.15-1a2,2,0,0,0,.91-1.27l.56-1.77a8.55,8.55,0,0,0-.33-3.11c.47.15,1.41-.22,2.82-1.1Z"></path><path class="cls-3" d="M162.71,35.15,159.65,34l3.11-8.22a8.43,8.43,0,0,0-.14-3.12c.45.18,1.41-.13,2.87-.93l-3.78,10a.66.66,0,0,0,0,.36,3.51,3.51,0,0,0,.15.5,2.82,2.82,0,0,0,.23.46.67.67,0,0,0,.24.24l.93.35Z"></path><path class="cls-3" d="M164,35.72l-2-.84.61-1.49,2.05.84Z"></path><path class="cls-3" d="M170.88,38.86,168,37.53l-3,1a2,2,0,0,0,0-.76,4.77,4.77,0,0,0-.27-.92,4.14,4.14,0,0,0-.43-.84,1.35,1.35,0,0,0-.52-.5l-.51-.24.67-1.46.49.23a2.53,2.53,0,0,1,1.12,1.57,4.28,4.28,0,0,0,.57,1.31c.25.12.42.08.5-.1s0-.5-.23-1.06L165.63,34a1.7,1.7,0,0,1,0-1.34,1.67,1.67,0,0,1,1-.7l5-1.84a2.9,2.9,0,0,0-.48.69,3.48,3.48,0,0,0-.13,1.39L171,34.4a3.63,3.63,0,0,1-.16,1.46,1.91,1.91,0,0,1-.74.87l1.45.66Zm-1.55-10a2.8,2.8,0,0,1-1,.8,2.5,2.5,0,0,0-.63-1.2c-.23-.25-.3-.47-.21-.67s.63-.36,1.67-.63a.83.83,0,0,0,0,.42c0,.16.06.32.1.47s.07.31.1.45A.54.54,0,0,1,169.33,28.9Zm-.14,7a1.8,1.8,0,0,0,.09-.72l-.11-1.92a1.15,1.15,0,0,1,.06-.49,2.73,2.73,0,0,1,.13-.25.94.94,0,0,1,.08-.15c-.63.17-1,.38-1.12.64a1.61,1.61,0,0,0-.09.81l.11,1.66a3.09,3.09,0,0,1,0,.55,1.62,1.62,0,0,1-.09.35s0,0,0,.05l0,0C168.76,36.32,169.09,36.13,169.19,35.92Z"></path><path class="cls-3" d="M174.13,40a1.7,1.7,0,0,1-1.43-.09l-2.65-1.42.76-1.43,1.26.68a.36.36,0,0,0,.21,0,.77.77,0,0,0,.25,0,.78.78,0,0,0,.22-.12.52.52,0,0,0,.16-.17L176,31.73a8.21,8.21,0,0,0,.26-3.11c.43.23,1.43,0,3-.55l-5.37,10a4.54,4.54,0,0,0-.29.64,1.11,1.11,0,0,0,0,.46.72.72,0,0,0,.19.39A4,4,0,0,0,174.13,40Z"></path><path class="cls-3" d="M179.12,43.37c-.21.09-.71-.1-1.48-.57a7.35,7.35,0,0,1-1.07-.76,2.06,2.06,0,0,1-.55-.73,1.41,1.41,0,0,1-.05-.79,3.06,3.06,0,0,1,.39-.9l3.47-5.76a8.19,8.19,0,0,0,.43-3.09c.47.28,1.47.15,3-.4l-5.32,8.81a4.14,4.14,0,0,0-.41.86,2,2,0,0,0-.08.79,2.26,2.26,0,0,0,.25.79,5,5,0,0,0,.62.88l.35.37C178.8,43,179,43.18,179.12,43.37Z"></path><path class="cls-3" d="M187.75,49.87l-5.9-4.37a2,2,0,0,0,.81-.34,1.12,1.12,0,0,0,.11-.26c0-.12.07-.26.12-.41a3.26,3.26,0,0,1,.15-.44,1.37,1.37,0,0,1,.2-.38,1.83,1.83,0,0,1,1.25-.74l2.51-.37.21-1.38,2-.23-.21,1.3,1-.15a3.85,3.85,0,0,0-.93.85,5.84,5.84,0,0,0-.53,2Zm-1.47-3.09.28-1.62a2.4,2.4,0,0,1,.34-1l-.17,0-.34.06-.35.1a.44.44,0,0,0-.22.13,1.41,1.41,0,0,0-.23.63l-.17,1.08c.09.07.17.14.25.19l.23.17.2.15Zm3.39-7a3,3,0,0,1-1.13.58,2.55,2.55,0,0,0-.36-1.3c-.18-.29-.2-.53-.08-.7s.7-.23,1.77-.28a.86.86,0,0,0-.11.41V39c0,.16,0,.32,0,.46A.54.54,0,0,1,189.67,39.78Zm2,1.48a3,3,0,0,1-1.12.58,2.56,2.56,0,0,0-.37-1.3c-.18-.29-.2-.53-.07-.7s.69-.23,1.77-.28a.86.86,0,0,0-.12.41c0,.16,0,.32,0,.48v.46A.54.54,0,0,1,191.66,41.26Z"></path><path class="cls-3" d="M193.44,52.32a2.38,2.38,0,0,1-1.72.73l-6.16.48a3.43,3.43,0,0,1-2.55-.88,1.87,1.87,0,0,1-.45-.5,5.82,5.82,0,0,0,1.22.38,6.25,6.25,0,0,0,1.66.06l4.49-.34a2.23,2.23,0,0,0,1.5-.49,6.76,6.76,0,0,0,.35-1.24l.25-1a4.31,4.31,0,0,1,.53-1.49,1.8,1.8,0,0,1,1.2-.62l1.84-.13a3.24,3.24,0,0,0-.65.55,3.59,3.59,0,0,0-.49,1.3l-.36,1.54A4.69,4.69,0,0,1,193.44,52.32Z"></path><path class="cls-3" d="M196.94,57.87c-.24,0-.68-.27-1.33-.89a7.78,7.78,0,0,1-.87-1,2,2,0,0,1-.36-.83,1.3,1.3,0,0,1,.12-.77,3,3,0,0,1,.58-.8l4.67-4.83a8.29,8.29,0,0,0,1.11-2.92c.4.38,1.4.47,3,.28l-7.15,7.4a4.06,4.06,0,0,0-.59.74,1.92,1.92,0,0,0-.26.75,2.18,2.18,0,0,0,.07.83,5.16,5.16,0,0,0,.41,1l.25.44A5.85,5.85,0,0,1,196.94,57.87Z"></path><path class="cls-3" d="M201.41,60.34a2.41,2.41,0,0,1-1.79.54l-6.17-.19A3.47,3.47,0,0,1,191,59.54a2.06,2.06,0,0,1-.38-.56,5.24,5.24,0,0,0,1.17.52,6.19,6.19,0,0,0,1.64.24l4.5.15a2.12,2.12,0,0,0,1.54-.33,6.26,6.26,0,0,0,.48-1.19l.37-1A4.28,4.28,0,0,1,201,56a1.8,1.8,0,0,1,1.26-.49l1.84.08a2.9,2.9,0,0,0-.7.47,3.4,3.4,0,0,0-.63,1.24l-.53,1.5A4.52,4.52,0,0,1,201.41,60.34Zm2.24-6.15a2.92,2.92,0,0,1-1.2.39,2.62,2.62,0,0,0-.15-1.35c-.13-.32-.11-.55,0-.7s.72-.11,1.79,0a.83.83,0,0,0-.17.38c0,.16-.06.32-.08.48s0,.31-.07.45A.57.57,0,0,1,203.65,54.19Z"></path><path class="cls-3" d="M206.49,67a2.26,2.26,0,0,1-1.73.33l-5.91-.67a3.44,3.44,0,0,1-2.34-1.35,1.76,1.76,0,0,1-.34-.58c.16.11.33.22.51.32a3.32,3.32,0,0,0,.6.28c.22.08.46.16.73.23s.57.11.9.15l2.58.31c.4,0,.66,0,.77-.08s.19-.36.24-.83l.22-2.31c0-.18,0-.33.05-.45a1.77,1.77,0,0,1,.07-.29.67.67,0,0,1,.12-.2.94.94,0,0,1,.2-.2,1.12,1.12,0,0,1,.62-.25,3.42,3.42,0,0,1,.64,0l5.41.55a2.59,2.59,0,0,0-.61.38,4.22,4.22,0,0,0-.92,1.48l-.66,1.45A4.64,4.64,0,0,1,206.49,67Zm-1.34-.83a1.77,1.77,0,0,0,.4-.6l.75-1.78a.94.94,0,0,1,.26-.41l.23-.18.13-.09a1.65,1.65,0,0,0-1.29.08,1.74,1.74,0,0,0-.43.69l-.63,1.54a2.17,2.17,0,0,1-.25.49,1.25,1.25,0,0,1-.23.27.1.1,0,0,1-.05,0l0,0A1.66,1.66,0,0,0,205.15,66.14Z"></path></g></g></svg>